<svg width="32" height="32" viewBox="0 0 32 32" fill="none" xmlns="http://www.w3.org/2000/svg">
<path d="M19.6281 30.2134C25.5574 28.7067 30.0441 23.5854 30.6068 17.3334H23.9654C23.7174 22.0627 22.1574 26.4627 19.6281 30.2134ZM30.6068 14.6667C30.0441 8.41335 25.5534 3.29069 19.6228 1.78402C22.1534 5.53602 23.7161 9.93602 23.9654 14.6667H30.6068ZM12.3788 1.78402C6.44542 3.29069 1.95742 8.41335 1.39209 14.6667H8.03476C8.28409 9.93602 9.84676 5.53602 12.3788 1.78402ZM1.39342 17.3334C1.67034 20.3508 2.87422 23.2086 4.83986 25.5147C6.8055 27.8207 9.43659 29.462 12.3721 30.2134C9.84276 26.4627 8.28276 22.0627 8.03476 17.3334H1.39342ZM16.0001 30.616C12.9241 26.9027 10.9974 22.3214 10.7068 17.3334H21.2948C21.0014 22.32 19.0761 26.9027 16.0014 30.616M16.0001 1.39069C19.0761 5.10269 21.0001 9.68269 21.2934 14.6667H10.7068C11.0001 9.68269 12.9254 5.10269 16.0001 1.39069Z" fill="#3B9FBF"/>
</svg>
