<svg width="28" height="31" viewBox="0 0 28 31" fill="none" xmlns="http://www.w3.org/2000/svg">
    <path fill-rule="evenodd" clip-rule="evenodd" d="M13.0457 12.5C15.6453 12.5 17.7699 10.3828 17.7699 7.75C17.7699 5.11719 15.6453 3 13.0457 3C10.4461 3 8.32158 5.11719 8.32158 7.75C8.32158 10.3828 10.4461 12.5 13.0457 12.5ZM13.0457 15.5C17.3116 15.5 20.7699 12.0302 20.7699 7.75C20.7699 3.46979 17.3116 0 13.0457 0C8.7798 0 5.32158 3.46979 5.32158 7.75C5.32158 12.0302 8.7798 15.5 13.0457 15.5Z" fill="#3B9EBE"/>
    <path fill-rule="evenodd" clip-rule="evenodd" d="M6.19998 19.7531C4.67516 21.0651 3.62043 23.0299 3.04081 25.6793C2.92116 26.2262 3.06886 26.7264 3.48871 27.1695C3.94043 27.6462 4.67968 28 5.52848 28H21.5285C22.3773 28 23.1165 27.6462 23.5682 27.1695C23.9881 26.7264 24.1358 26.2262 24.0161 25.6793C23.4365 23.0299 22.3818 21.0651 20.857 19.7531C19.3587 18.464 17.0888 17.5312 13.5285 17.5312C9.96817 17.5312 7.69824 18.464 6.19998 19.7531ZM21.5285 31C24.8422 31 27.655 28.2753 26.9468 25.0381C25.6017 18.8896 21.7428 14.5312 13.5285 14.5312C5.31413 14.5312 1.45526 18.8896 0.110122 25.0381C-0.598081 28.2753 2.21477 31 5.52848 31H21.5285Z" fill="#3B9EBE"/>
</svg>
