<svg width="390" height="350" viewBox="0 0 390 350" fill="none" xmlns="http://www.w3.org/2000/svg">
<rect width="390" height="350" fill="#14333D"/>
<mask id="mask0_108_1504" style="mask-type:alpha" maskUnits="userSpaceOnUse" x="0" y="0" width="390" height="350">
<rect width="390" height="350" fill="#14333D"/>
</mask>
<g mask="url(#mask0_108_1504)">
<path d="M-24.3762 145.841L-19.1319 148.225L-15.2522 147.389L-14.1792 144.533L-10.1199 143.581L-7.2216 141.651L-6.19439 136.542L-1.85993 135.299L-1.05282 133.002L1.37398 134.728L2.92404 134.928L5.78737 134.97L9.66694 136.33L11.2389 137.113L14.9608 135.047L16.6961 136.289L18.3543 133.338L21.4286 133.474L22.2192 132.523L22.764 129.904L24.978 127.633L27.7625 129.119L27.203 131.107L28.7586 131.417L28.2799 136.839L30.314 138.936L32.108 137.592L34.39 136.955L37.5945 134.073L41.1366 134.548L46.4415 134.559L47.3567 136.407L44.3632 137.126L41.7492 138.309L35.8464 139.052L30.3232 140.393L27.3223 143.159L28.5366 145.837L29.1255 148.963L26.5629 151.586L26.7775 153.974L25.3632 156.201L20.4711 156.008L22.4925 160.079L19.2201 161.627L17.0355 165.303L17.3179 168.935L15.3093 170.63L13.4071 170.068L9.47616 170.853L8.91301 172.53L5.08304 172.521L2.21781 175.901L2.03621 180.946L-4.64623 183.395L-8.22866 182.877L-9.27055 184.165L-12.3449 183.417L-17.4884 184.295L-26.106 181.292L-21.4413 175.918L-21.8631 172.073L-25.7593 171.061L-26.1628 167.236L-27.8467 162.386L-25.6455 159.035L-27.8853 158.127L-26.4728 153.631L-24.3762 145.841Z" fill="#14333D" stroke="white" stroke-opacity="0.1" stroke-width="0.517361"/>
<path d="M137.437 225.64L137.331 229.588L135.537 228.757L135.872 233.165L134.401 230.311L134.106 227.513L133.126 224.859L130.978 221.638L126.24 221.416L126.708 223.7L125.094 226.77L122.905 225.653L122.159 226.655L120.702 226.055L118.712 225.561L117.911 221.003L116.129 216.819L117.003 213.446L113.838 211.943L114.979 209.891L118.195 207.787L114.482 204.788L116.298 200.923L120.372 203.386L122.828 203.667L123.281 207.611L128.175 208.387L132.946 208.302L135.911 209.267L133.541 214.025L131.239 214.35L129.652 217.531L132.468 220.414L133.308 216.856L134.728 216.837L137.437 225.64Z" fill="#14333D" stroke="white" stroke-opacity="0.1" stroke-width="0.517361"/>
<path d="M248.176 318.02L250.212 316.102L254.589 313.292L254.357 315.819L254.057 319.093L251.599 318.93L250.518 320.675L248.176 318.02Z" fill="#14333D" stroke="white" stroke-opacity="0.1" stroke-width="0.517361"/>
<path d="M132.413 193.305L134.508 195.148L134.147 198.679L129.952 198.85L125.608 198.465L122.376 199.362L117.7 197.184L117.59 196.031L120.993 191.736L123.772 190.263L127.446 191.608L130.163 191.749L132.413 193.305Z" fill="#14333D" stroke="white" stroke-opacity="0.1" stroke-width="0.517361"/>
<path d="M228.299 243.984L223.855 246.574L219.638 244.905L219.489 240.255L222.024 237.795L227.643 236.27L230.6 236.401L231.75 238.475L229.49 240.862L228.299 243.984ZM317.37 46.7576L326.322 49.2871L332.414 54.8543L334.496 62.0906L342.312 62.0998L346.771 59.0787L355.271 56.806L352.567 63.7048L350.57 66.4783L348.807 74.6631L345.347 81.7949L339.107 80.5054L334.692 83.0735L336.047 89.2313L335.306 97.5829L332.68 97.7719L332.711 101.31L329.389 97.1941L327.345 101.101L319.403 104.082L320.206 107.705L315.76 107.455L313.318 105.305L309.784 110.155L304.116 113.795L299.928 118.1L292.737 120.039L288.951 123.137L283.412 124.936L286.145 121.877L285.068 119.288L289.142 114.787L286.425 111.247L281.942 113.635L276.137 118.302L272.967 122.594L267.923 122.911L265.298 125.986L268.011 130.404L272.219 131.472L272.393 134.376L276.461 136.256L282.227 131.646L286.792 134.167L290.118 134.337L290.952 137.705L283.67 139.492L281.265 142.926L276.263 146.095L273.624 150.485L279.161 153.904L281.183 159.97L284.312 165.557L287.805 170.196L287.72 174.646L284.492 176.273L285.723 179.438L288.749 181.272L287.959 186.058L286.653 190.677L283.778 191.197L280.024 197.447L275.858 204.942L271.081 211.685L264.01 216.854L256.856 221.537L251.061 222.174L247.917 224.632L246.138 222.836L243.229 225.584L236.04 228.342L230.598 229.184L228.842 234.964L225.992 235.284L224.644 231.318L225.862 229.195L218.961 227.436L216.53 228.331L211.352 226.904L208.903 224.663L209.716 221.475L205.015 220.46L202.534 218.373L198.151 221.335L193.15 221.976L189.049 221.946L186.288 223.298L183.623 224.109L184.4 230.406L181.658 230.256L181.196 228.966L181.04 226.692L177.267 228.295L175.04 227.282L171.221 225.213L172.718 220.614L169.462 219.538L168.235 214.4L162.805 215.328L163.423 208.66L168.293 203.928L168.501 199.221L168.348 194.822L166.103 193.446L164.384 190.035L161.374 190.466L155.829 189.596L157.566 187.149L155.156 183.506L151.489 185.975L147.175 184.535L141.246 188.259L136.565 192.579L132.416 193.303L130.163 191.746L127.448 191.605L123.772 190.262L120.993 191.735L117.593 196.029L117.161 191.478L114.025 192.698L108.027 192.131L102.208 190.801L98.035 188.246L94.0381 187.096L92.3119 184.284L89.423 183.442L84.2299 179.601L80.1064 177.779L77.9749 179.197L70.8284 175.043L65.7749 171.255L64.3331 164.598L68.0238 165.414L68.1925 162.307L66.1472 159.174L66.6682 154.141L61.1396 146.823L52.6815 144.274L51.159 139.393L47.3601 136.408L46.4447 134.561L45.6726 130.87L45.8523 128.337L42.7284 126.848L41.0391 127.506L39.7349 121.409L41.1986 119.888L40.4888 118.329L45.3993 115.163L48.9542 113.846L54.3983 114.748L56.3446 110.43L62.9427 109.623L64.7752 106.912L72.8811 103.187L73.6038 101.622L73.1929 97.6508L76.7221 95.8257L72.0922 83.4367L82.282 80.5348L84.916 78.9095L88.6249 65.5887L98.8294 68.0705L101.691 64.6587L101.937 56.9802L106.209 56.2556L110.123 51.0627L112.137 50.417L113.487 55.865L117.809 59.9555L125.145 62.8262L128.694 68.9143L126.715 77.587L128.566 80.7585L134.677 82.0022L141.604 83.0147L147.819 87.5052L150.996 88.2994L153.338 94.8443L156.357 99.0063L162.027 98.8449L172.642 100.408L179.483 99.4393L184.56 100.476L192.169 104.678L198.393 104.673L200.669 106.808L206.658 103.113L214.966 100.707L222.673 100.443L228.683 97.9901L232.373 94.228L235.974 91.8488L235.141 89.5009L233.498 86.7512L236.2 82.0957L239.093 82.7524L244.379 84.2199L249.504 80.366L257.346 77.5301L261.115 72.6471L264.736 70.5267L272.206 69.5343L276.265 70.3762L276.828 67.711L272.167 62.4153L268.04 59.9702L264.087 62.7914L259.013 61.6046L256.102 62.573L254.776 59.4437L258.41 51.6882L260.914 45.7321L267.086 48.7258L274.335 43.7016L274.288 40.1632L278.93 31.496L281.792 28.8362L281.728 24.2101L278.906 22.2015L283.153 17.9587L289.544 16.4087L296.364 16.1758L304.061 18.7328L308.577 21.8713L311.755 30.3294L313.683 33.8825L315.476 38.892L317.37 46.7576Z" fill="#3B9FBF"/>
<path d="M61.1383 146.824L66.667 154.141L66.1461 159.172L68.1913 162.305L68.0225 165.413L64.3319 164.596L65.7737 171.255L70.8273 175.043L77.9756 179.198L74.7104 181.878L72.7148 187.364L77.6968 189.569L82.5467 192.416L89.2548 195.657L96.3041 196.402L99.2702 199.324L103.245 199.867L109.432 201.2L113.716 201.105L114.304 198.84L113.627 195.187L114.026 192.7L117.162 191.48L117.593 196.031L117.703 197.185L122.379 199.362L125.611 198.465L129.955 198.851L134.15 198.68L134.511 195.149L132.416 193.305L136.566 192.583L141.247 188.261L147.175 184.537L151.49 185.977L155.156 183.508L157.567 187.149L155.83 189.598L161.377 190.466L161.764 192.665L159.961 193.725L160.384 197.271L156.708 196.231L150.05 200.197L150.206 203.46L147.368 208.218L147.106 210.966L144.813 215.592L140.794 214.316L140.594 220.09L139.433 221.981L139.976 224.331L137.439 225.641L134.729 216.838L133.31 216.856L132.47 220.415L129.654 217.531L131.241 214.351L133.543 214.026L135.913 209.268L132.948 208.303L128.177 208.387L123.283 207.611L122.83 203.667L120.374 203.387L116.3 200.923L114.484 204.788L118.197 207.787L114.981 209.891L113.84 211.944L117.004 213.446L116.131 216.82L117.912 221.004L118.714 225.562L117.977 227.572L114.477 227.504L108.137 228.645L108.433 232.769L105.687 235.997L98.2852 239.655L92.5291 246.013L88.6623 249.403L83.5372 252.91L83.5299 255.364L80.9673 256.678L76.3338 258.583L73.9309 258.866L72.3901 262.911L73.4595 269.776L73.7328 274.135L71.5537 279.109L71.5298 287.96L68.8681 288.211L66.5275 292.168L68.0923 293.876L63.4019 295.341L61.6703 298.856L59.6067 300.34L54.7383 295.517L52.3574 288.259L50.3837 283.013L48.5805 280.544L45.8493 275.521L44.5725 268.951L43.6829 265.657L39.0054 258.378L36.8758 248.021L35.3368 241.121L35.3552 234.537L34.3573 229.412L26.8732 232.692L23.2486 232.037L16.5295 225.377L19.0021 223.379L17.4833 221.204L11.4502 216.48L14.8749 212.744L26.1927 212.758L25.1728 207.921L22.2819 205.049L21.6967 200.663L18.3308 198.091L23.9988 192.047L29.9714 192.487L35.3515 186.386L38.5744 180.423L43.5692 174.463L43.4885 170.193L47.8762 166.702L43.7233 163.705L41.9367 159.57L40.1152 154.167L42.6356 151.487L50.4387 153.005L56.171 152.081L61.1383 146.824Z" fill="#14333D" stroke="white" stroke-opacity="0.1" stroke-width="0.517361"/>
<path d="M353.275 155.211L353.932 157.328L351.035 161.042L348.926 159.076L346.288 160.501L344.923 164.071L341.572 162.335L341.612 159.432L344.457 155.757L347.383 156.473L349.496 153.874L353.275 155.211ZM385.871 136.349L383.932 141.45L384.829 144.625L382.149 149.057L375.578 151.995L366.537 152.377L359.209 159.428L355.753 157.065L355.54 152.437L346.594 153.808L340.508 156.721L334.488 156.838L339.703 161.356L336.271 171.648L332.945 174.167L330.458 171.841L331.72 166.409L328.466 164.645L326.376 160.461L331.237 158.571L333.936 154.694L339.108 151.483L342.882 147.204L353.119 145.328L358.618 146.615L364 135.301L367.429 138.366L374.973 131.924L377.899 129.398L381.133 121.358L380.25 113.838L382.424 109.558L387.892 108.307L390.695 117.677L390.543 123.066L385.785 129.673L385.871 136.349ZM400.96 88.7828L404.577 90.3034L408.215 87.2749L409.357 95.2506L401.728 97.1729L397.225 104.075L389.138 99.3375L386.34 106.898L380.619 107.001L379.911 100.139L382.455 94.7517L387.951 94.3609L389.45 84.4904L390.97 78.8242L397.014 86.3761L400.96 88.7828Z" fill="#14333D" stroke="white" stroke-opacity="0.1" stroke-width="0.517361"/>
<path d="M25.7771 102.203L26.929 99.1576L30.3133 98.1726L38.7769 100.574L39.5748 96.4521L42.4951 94.9956L49.8195 97.947L51.6887 97.1748L60.2164 97.3674L67.8472 98.0993L70.4281 100.603L73.5959 101.621L72.8733 103.186L64.7693 106.913L62.9368 109.624L56.3387 110.431L54.3924 114.749L48.9501 113.847L45.3952 115.164L40.4847 118.33L41.1945 119.889L39.7308 121.41L30.0052 122.413L23.6529 120.26L18.0747 120.775L18.5627 116.93L24.1611 118.049L26.0431 115.984L29.9557 116.644L36.5427 111.792L30.4473 108.208L26.7841 109.909L22.9871 107.339L27.3051 102.883L25.7771 102.203Z" fill="#14333D" stroke="white" stroke-opacity="0.1" stroke-width="0.517361"/>
<path d="M193.11 286.529L191.019 283.818L188.418 278.427L187.2 272.098L190.495 267.723L197.144 266.714L201.965 267.472L206.209 269.537L208.537 265.902L213.094 267.844L214.286 271.355L213.653 277.64L205.008 281.659L207.266 284.816L201.867 285.193L197.416 287.288L193.11 286.529Z" fill="#14333D" stroke="white" stroke-opacity="0.1" stroke-width="0.517361"/>
<path d="M332.71 101.309L333.429 102.521L331.475 102.107L329.243 104.445L327.707 106.782L327.902 111.676L325.244 113.173L324.329 114.362L322.39 116.348L318.965 117.451L316.733 119.243L316.571 122.119L315.971 122.851L318.019 123.924L320.932 126.807L320.191 128.391L318 128.822L314.366 129.137L312.362 132.072L310.067 131.841L309.744 132.428L307.247 131.195L306.626 132.413L305.12 132.951L304.938 131.731L303.606 131.136L302.223 130.1L303.63 127.226L304.843 126.455L304.386 125.256L305.69 121.695L305.354 120.609L302.352 119.887L299.927 118.098L304.114 113.793L309.783 110.154L313.317 105.304L315.759 107.454L320.203 107.703L319.402 104.08L327.344 101.101L329.388 97.1924L332.71 101.309Z" fill="#14333D" stroke="white" stroke-opacity="0.1" stroke-width="0.517361"/>
<path d="M320.93 126.807L325.369 134.479L326.642 138.642L326.683 145.952L324.744 149.404L320.086 150.604L315.976 153.187L311.342 153.719L310.768 150.329L311.72 145.622L309.447 139.017L313.268 137.94L309.743 132.428L310.065 131.841L312.36 132.072L314.365 129.137L317.999 128.821L320.189 128.39L320.93 126.807Z" fill="#14333D" stroke="white" stroke-opacity="0.1" stroke-width="0.517361"/>
<path d="M25.7767 102.202L22.827 103.481L16.0437 108.266L13.793 113.126L11.878 113.17L10.4674 109.958L3.92804 109.738L2.88068 104.126L0.374939 104.079L0.758286 97.1065L-5.39761 91.9575L-14.2189 92.5115L-20.2501 93.5406L-25.1625 87.1241L-29.3704 84.402L-37.3424 79.198L-38.3035 78.5633L-51.5437 82.8685L-51.34 108.782L-53.9796 109.116L-57.5786 103.738L-61.0546 101.801L-66.8933 103.24L-69.166 105.533L-69.454 103.855L-68.1901 100.97L-69.1715 98.5446L-75.1311 96.1582L-77.4535 89.804L-80.293 87.9973L-80.4636 85.6567L-75.4613 86.3408L-75.2632 81.0525L-70.8903 79.8675L-66.3962 80.9571L-65.4698 73.7904L-66.387 69.1789L-71.534 69.5421L-75.9071 67.7097L-81.8613 71.0059L-86.6599 72.5669L-89.272 71.3636L-88.7492 67.5079L-92.0271 62.4452L-95.8443 62.6579L-100.21 57.454L-97.2421 51.5566L-98.7444 49.9534L-94.6392 41.2037L-89.3508 45.8482L-88.7106 39.9913L-78.0937 31.0966L-70.0593 30.882L-58.7231 36.5721L-52.6333 39.8573L-47.1761 36.4308L-39.0225 36.2675L-32.4447 40.4718L-30.9497 38.0689L-23.7262 38.4192L-22.4366 34.5561L-30.7718 28.8752L-25.8357 24.7975L-26.7986 22.4973L-21.8607 20.2888L-25.5733 14.4043L-23.2162 11.4363L-3.97049 8.38588L-1.45938 6.20304L11.4102 2.91774L16.0345 -0.80957L25.2777 1.13111L26.8974 10.3248L32.2664 8.18777L38.8718 11.1796L38.4463 15.9176L43.3788 15.426L56.2685 7.18256L54.3865 9.94137L60.9497 16.6531L72.4418 37.8873L75.1823 33.6078L82.2682 38.3128L89.6587 36.2217L92.4982 37.6873L94.9727 42.3575L98.568 43.913L100.758 47.2937L107.384 46.2316L110.111 51.0632L106.197 56.2561L101.925 56.9789L101.681 64.6573L98.8193 68.0692L88.6168 65.5873L84.906 78.9082L82.2737 80.5334L72.0841 83.4353L76.7139 95.8243L73.1846 97.6494L73.5955 101.621L70.4277 100.603L67.8468 98.0988L60.216 97.367L51.6882 97.1743L49.8191 97.9466L42.4947 94.9952L39.5744 96.4517L38.7764 100.573L30.3129 98.1722L26.9286 99.1572L25.7767 102.202Z" fill="#14333D" stroke="white" stroke-opacity="0.1" stroke-width="0.517361"/>
<path d="M201.963 267.472L203.638 265.093L203.867 260.612L199.703 255.976L199.382 250.703L195.469 246.341L191.581 245.972L190.544 247.843L187.532 247.999L185.992 247.051L180.571 250.253L180.45 245.436L181.714 239.743L178.24 239.493L177.944 236.228L175.719 234.546L176.814 232.536L181.191 228.97L181.653 230.259L184.396 230.408L183.62 224.111L186.285 223.3L189.29 227.658L191.599 232.642L197.931 232.684L199.925 237.439L196.638 238.862L195.161 240.812L201.324 244.044L205.598 250.4L208.842 255.111L212.732 258.814L214.027 262.562L213.092 267.844L208.535 265.902L206.208 269.538L201.963 267.472Z" fill="#14333D" stroke="white" stroke-opacity="0.1" stroke-width="0.517361"/>
<path d="M81.4532 302.623L80.6791 307.983L78.5238 309.445L74.05 310.62L71.6011 306.534L70.6895 299.127L73.0191 290.729L76.5722 293.607L78.9677 297.248L81.4532 302.623Z" fill="#14333D" stroke="white" stroke-opacity="0.1" stroke-width="0.517361"/>
<path d="M172.771 235.807L169.772 238.166L166.14 238.41L163.796 244.262L161.624 245.241L164.111 249.959L167.374 253.866L169.48 257.383L167.598 262.002L165.823 262.979L167.05 265.632L170.48 269.821L171.069 272.756L170.988 275.192L172.999 279.963L170.174 284.824L167.683 290.164L167.187 286.308L168.767 282.32L167.037 279.231L167.455 273.527L165.368 270.804L163.691 264.494L162.761 257.795L160.538 253.378L157.15 256.055L151.304 259.848L148.42 259.375L145.234 258.127L147.006 251.517L145.933 246.491L141.901 240.263L142.53 238.309L139.52 237.612L135.872 233.166L135.536 228.758L137.33 229.589L137.437 225.642L139.973 224.332L139.43 221.982L140.592 220.091L140.791 214.317L144.811 215.593L147.103 210.967L147.366 208.219L150.203 203.461L150.047 200.198L156.706 196.232L160.382 197.272L159.958 193.726L161.761 192.666L161.374 190.467L164.383 190.036L166.101 193.448L168.345 194.825L168.497 199.224L168.29 203.932L163.42 208.665L162.802 215.333L168.231 214.403L169.458 219.541L172.714 220.617L171.217 225.216L175.036 227.285L177.263 228.3L181.035 226.696L181.191 228.971L176.814 232.537L175.719 234.547L172.771 235.807Z" fill="#14333D" stroke="white" stroke-opacity="0.1" stroke-width="0.517361"/>
<path d="M112.125 50.4167L117.547 49.052L127.361 42.1916L135.182 38.3946L139.656 40.8764L145.022 40.9956L148.459 44.7432L153.592 45.0293L161.028 47.0287L166.028 41.4652L163.939 36.696L169.266 28.1499L175.028 31.5819L179.696 32.5486L185.744 34.6617L186.725 40.7535L194.029 44.1305L198.892 42.6466L205.398 41.5955L210.551 42.6539L215.588 46.4913L218.71 50.5323L223.479 50.4498L229.958 51.7283L234.685 49.7802L241.458 48.4742L248.989 42.863L252.075 43.7288L254.767 46.3996L260.903 45.7374L258.399 51.6934L254.766 59.4471L256.09 62.5764L259.001 61.6079L264.075 62.7947L268.028 59.9735L272.155 62.4187L276.816 67.7144L276.253 70.3796L272.195 69.5359L264.724 70.5282L261.105 72.6487L257.335 77.5316L249.494 80.3675L244.369 84.2214L239.082 82.754L236.189 82.0973L233.487 86.7528L235.131 89.5024L235.964 91.8503L232.363 94.2295L228.672 97.9917L222.663 100.444L214.955 100.708L206.646 103.113L200.659 106.807L198.38 104.672L192.158 104.678L184.548 100.475L179.472 99.439L172.63 100.407L162.015 98.8465L156.345 99.0079L153.328 94.8458L150.983 88.3009L147.806 87.5067L141.592 83.0163L134.665 82.0037L128.553 80.7582L126.702 77.5867L128.682 68.9158L125.134 62.8277L117.799 59.957L113.475 55.8647L112.125 50.4167Z" fill="#14333D" stroke="white" stroke-opacity="0.1" stroke-width="0.517361"/>
<path d="M180.654 309.406L181.058 312.044L184.455 311.431L186.135 309.322L187.318 309.802L190.356 312.902L192.515 316.338L192.809 319.788L192.262 322.118L192.761 323.877L193.137 326.905L194.947 328.314L196.971 332.836L196.872 334.564L193.225 334.905L188.36 331.119L182.276 327.061L181.674 324.455L178.701 321.032L177.991 316.789L176.135 313.994L176.699 310.255L175.566 308.076L176.459 307.159L180.654 309.406ZM270.879 318.266L267.093 320.012L262.636 319.148L256.722 319.146L254.939 324.97L252.96 326.75L250.322 333.859L246.127 334.949L241.262 333.516L238.795 333.964L235.798 336.549L232.514 336.18L229.196 337.218L225.68 334.331L224.819 330.915L228.589 332.667L232.564 331.711L233.598 327.382L235.792 326.418L241.957 325.31L245.646 321.261L248.172 318.022L250.514 320.676L251.595 318.93L254.053 319.093L254.354 315.819L254.585 313.293L258.545 309.722L261.139 305.703L263.219 305.686L265.86 308.289L266.095 310.523L269.483 311.954L273.775 313.498L273.409 315.507L269.958 315.762L270.879 318.266Z" fill="#14333D" stroke="white" stroke-opacity="0.1" stroke-width="0.517361"/>
<path d="M114.024 192.701L113.625 195.189L114.302 198.841L113.714 201.106L109.43 201.201L103.243 199.868L99.2683 199.325L96.3022 196.403L89.2529 195.658L82.5448 192.417L77.6949 189.57L72.7129 187.365L74.7085 181.879L77.9737 179.199L80.1051 177.781L84.2287 179.602L89.4217 183.443L92.3107 184.287L94.0387 187.099L98.0338 188.251L102.209 190.804L108.027 192.134L114.024 192.701Z" fill="#14333D" stroke="white" stroke-opacity="0.1" stroke-width="0.517361"/>
<path d="M310.783 298.021L311.305 301.449L311.608 304.34L309.856 309.047L307.978 303.803L305.573 306.415L307.217 310.203L305.742 312.609L299.689 309.629L298.243 305.907L299.812 303.46L296.554 301.022L294.938 303.159L292.518 302.961L288.712 305.833L287.861 304.326L289.881 299.982L293.12 298.529L295.925 296.581L297.743 298.92L301.653 297.506L302.492 295.2L306.127 295.062L305.821 291.056L309.99 293.514L310.421 296.119L310.783 298.021ZM298.469 288.367L296.62 290.073L295.009 293.347L293.393 294.879L290.225 291.298L291.284 289.91L292.575 288.457L293.144 285.23L295.98 284.924L295.152 288.424L298.959 283.403L298.469 288.367ZM270.294 293.358L263.452 298.265L265.974 294.65L269.688 291.452L272.777 287.863L275.474 282.693L276.389 286.938L272.994 289.798L270.294 293.358ZM287.672 279.968L290.761 281.584L294.033 281.576L293.933 283.754L291.552 285.964L288.285 287.525L288.103 285.109L288.468 282.453L287.672 279.968ZM306.287 278.552L307.732 284.376L303.763 282.994L303.871 284.742L305.131 287.951L302.684 289.114L302.471 285.46L300.921 285.19L300.118 282.037L303.143 282.453L303.077 280.478L299.933 276.486L304.871 276.602L306.287 278.552ZM285.841 273.803L284.477 278.328L282.276 275.718L279.649 271.721L284.055 271.913L285.841 273.803ZM284.781 244.925L287.953 246.462L289.538 245.061L290.005 246.429L289.169 248.658L290.924 252.499L289.571 256.932L286.538 258.695L285.73 262.973L286.88 267.181L289.605 267.762L291.88 267.138L298.304 270.059L297.814 272.92L299.492 274.18L298.957 276.594L294.949 274.023L293.048 271.264L291.724 273.192L288.45 270.046L283.778 270.824L281.217 269.661L281.479 267.483L283.086 266.141L281.551 264.919L280.887 266.823L278.348 263.787L277.578 261.481L277.387 256.393L279.458 258.145L279.99 249.789L281.666 244.917L284.781 244.925Z" fill="#14333D" stroke="white" stroke-opacity="0.1" stroke-width="0.517361"/>
<path d="M47.3539 136.406L51.1546 139.391L52.6771 144.272L61.1351 146.823L56.1678 152.081L50.4355 153.005L42.6324 151.486L40.112 154.166L41.9335 159.57L43.7201 163.705L47.873 166.702L43.4853 170.193L43.566 174.463L38.5712 180.423L35.3483 186.386L29.9682 192.487L23.9956 192.047L18.3276 198.091L21.6935 200.663L22.2787 205.048L25.1696 207.921L26.1895 212.758L14.8717 212.743L11.447 216.48L7.67749 215.066L6.144 211.032L2.17094 206.732L-7.30519 207.796L-15.6624 207.901L-22.9043 208.695L-20.9672 202.101L-13.5492 199.149L-13.973 196.504L-16.4346 195.572L-16.5759 190.478L-21.4936 187.918L-23.5646 184.385L-26.1089 181.292L-17.4913 184.295L-12.3478 183.416L-9.27341 184.165L-8.23153 182.877L-4.6491 183.394L2.03334 180.945L2.21494 175.901L5.08017 172.52L8.91014 172.53L9.47329 170.853L13.4043 170.068L15.3064 170.629L17.3151 168.934L17.0326 165.302L19.2172 161.626L22.4897 160.078L20.4683 156.008L25.3604 156.2L26.7746 153.974L26.56 151.585L29.1226 148.962L28.5337 145.836L27.3194 143.158L30.3203 140.392L35.8436 139.051L41.7463 138.308L44.3603 137.125L47.3539 136.406Z" fill="#14333D" stroke="white" stroke-opacity="0.1" stroke-width="0.517361"/>
<path d="M638.524 -113.068L633.425 -107.614L624.994 -106.334L624.868 -94.4788L622.808 -92.0079L617.993 -92.3619L614.071 -96.5148L607.233 -100.031L606.083 -105.332L600.858 -107.354L595.011 -105.749L592.217 -110.094L593.334 -114.776L587.174 -111.776L589.495 -105.918L586.576 -100.721L586.538 -100.655L579.927 -95.3629L573.261 -96.2397L577.9 -89.926L580.962 -80.3857L583.337 -77.326L583.933 -72.6815L582.605 -69.7429L573.019 -72.1588L558.643 -63.8841L554.07 -62.6221L546.201 -55.1087L538.736 -48.6794L536.846 -43.9964L529.489 -51.1503L516.087 -43.0444L513.748 -46.8561L508.794 -42.4647L501.915 -43.8643L500.259 -37.2039L494.088 -27.6325L494.273 -23.7125L500.13 -21.559L499.441 -7.87863L494.666 -7.53745L492.463 0.0823059L494.604 3.94174L485.61 8.46701L483.825 18.3815L476.156 20.4634L474.615 29.0169L467.201 36.6898L465.3 31.031L463.097 18.7539L460.228 -0.776123L462.701 -13.532L467.039 -19.1652L467.307 -23.6428L475.299 -25.8073L484.487 -38.2458L493.34 -48.7509L502.585 -57.1338L506.719 -72.4797L500.472 -71.5424L497.381 -62.5139L484.337 -50.8457L480.123 -63.9391L466.847 -60.2723L453.973 -42.7362L458.22 -36.5417L446.741 -33.9388L438.789 -32.9171L439.161 -40.1553L431.167 -41.6943L424.795 -36.738L409.069 -38.4641L392.151 -35.4925L375.49 -16.544L355.78 5.05884L363.883 6.17776L366.412 11.6826L371.409 13.6178L374.7 9.25577L380.342 9.82623L387.767 19.3482L387.941 26.5461L383.922 34.8225L383.488 44.4821L381.167 57.0435L373.415 68.0733L371.693 73.2405L364.712 81.7922L357.783 90.098L354.461 94.2857L347.608 98.4038L344.363 98.4937L341.133 95.0854L334.229 100.207L333.425 102.514L332.705 101.302L332.673 97.7636L335.3 97.5747L336.041 89.223L334.686 83.0634L339.101 80.4972L345.341 81.7866L348.801 74.6548L350.563 66.4701L352.561 63.6984L355.265 56.7996L346.765 59.0722L342.305 62.0934L334.489 62.0842L332.407 54.8478L326.316 49.2807L317.364 46.7511L315.462 38.8929L313.67 33.8834L311.742 30.3303L308.563 21.8722L304.047 18.7337L296.35 16.1767L289.53 16.4096L283.139 17.9596L278.893 22.2024L281.714 24.211L281.778 28.8371L278.917 31.4969L274.274 40.1641L274.322 43.7025L267.073 48.7267L260.9 45.7331L254.762 46.3953L252.07 43.7227L248.984 42.8568L241.453 48.468L234.682 49.7741L229.955 51.7221L223.476 50.4436L218.707 50.5262L215.585 46.4851L210.548 42.6478L205.393 41.5893L198.887 42.6404L194.026 44.1244L186.72 40.7474L185.741 34.6538L179.693 32.5425L175.024 31.5758L169.263 28.1438L163.936 36.6898L166.025 41.4591L161.025 47.0244L153.589 45.025L148.454 44.7389L145.017 40.9932L139.651 40.874L135.179 38.3903L127.356 42.1892L117.542 49.0477L112.12 50.4124L110.106 51.0581L107.378 46.2265L100.753 47.2886L98.5644 43.9079L94.9692 42.3524L92.4928 37.6841L89.6533 36.2185L82.2628 38.3096L75.1787 33.6045L72.4382 37.884L60.9443 16.6499L54.3829 9.93814L56.2632 7.17932L43.3752 15.4228L38.4427 15.9144L38.8682 11.1763L32.261 8.18448L26.8919 10.3233L25.2722 1.12973L16.0291 -0.812836L11.4048 2.91635L-1.4648 6.2016L-3.97601 8.3826L-23.2217 11.4331L-25.5788 14.401L-21.8661 20.2856L-26.804 22.4941L-25.8411 24.7943L-30.7772 28.872L-22.442 34.5547L-23.7298 38.4178L-30.9533 38.0674L-32.4465 40.4704L-39.0244 36.2643L-47.178 36.4276L-52.6368 39.8541L-58.725 36.5688L-70.0629 30.8787L-78.0972 31.0934L-88.7143 39.988L-89.3545 45.8449L-94.6428 41.2005L-98.7462 49.9502L-97.2438 51.5533L-100.212 57.4507L-95.8461 62.6547L-92.0289 62.4419L-88.751 67.5046L-89.272 71.3604L-86.6599 72.5637L-89.0042 76.9495L-93.9898 78.1602L-99.102 85.6589L-94.4282 92.4367L-94.9345 97.1802L-89.3177 105.354L-92.3884 108.116L-93.2708 109.85L-95.5471 109.386L-99.0818 105.229L-100.527 104.998L-103.761 103.4L-105.335 100.557L-110.132 99.1008L-113.25 100.196L-114.151 98.9009L-121.154 95.5422L-128.726 94.4013L-133.074 93.1943L-133.701 94.0289L-140.259 88.0234L-146.127 85.314L-150.569 81.0602L-146.826 79.8936L-142.557 73.7413L-145.433 70.7972L-137.854 67.7394L-137.99 66.0904L-142.607 67.3065L-142.445 63.946L-139.795 61.8201L-134.818 61.2588L-134.009 58.6999L-135.146 54.4314L-133.057 50.3354L-133.118 48.0186L-140.699 45.4341L-143.705 45.5203L-146.879 41.7728L-150.824 43.0439L-157.356 40.2154L-157.245 38.6233L-159.073 35.0903L-163.175 34.6942L-163.6 32.1407L-162.316 30.466L-165.604 25.7426L-170.936 26.5534L-172.499 26.1333L-173.797 28.0356L-175.718 27.698L-176.982 22.3106L-178.189 19.4858L-177.198 18.6878L-173.049 18.985L-171.048 17.1103L-172.53 14.8119L-175.999 13.2858L-175.689 11.7137L-177.782 10.1179L-181.006 4.33426L-179.904 1.92398L-180.407 -2.30963L-185.434 -4.47964L-188.133 -3.39185L-188.863 -5.65912L-194.278 -7.96298L-195.93 -13.4458L-196.369 -18.0169L-198.847 -20.2071L-196.644 -23.2502L-198.17 -32.3522L-194.511 -38.0991L-195.285 -39.8582L-189.439 -45.4914L-194.828 -50.4147L-183.817 -63.9978L-179.04 -70.3318L-177.105 -76.0255L-184.717 -83.8323L-182.615 -91.4356L-187.245 -100.339L-183.782 -110.912L-189.763 -125.508L-185.018 -135.557L-192.895 -144.71L-192.144 -154.622L-187.99 -155.951L-179.238 -161.798L-173.931 -166.958L-165.483 -158.043L-151.399 -154.602L-131.966 -138.743L-128.018 -132.308L-127.679 -123.511L-133.389 -116.733L-141.787 -113.347L-164.747 -123.092L-168.524 -121.441L-160.139 -112.092L-159.811 -106.306L-159.475 -93.9193L-152.853 -90.313L-148.834 -87.2735L-148.17 -92.9728L-151.268 -98.1107L-147.994 -102.706L-135.561 -95.1868L-131.23 -98.1089L-134.692 -107.055L-122.704 -119.422L-117.957 -118.681L-113.155 -114.223L-110.159 -123.048L-114.448 -130.905L-111.929 -138.987L-115.71 -147.593L-101.323 -143.114L-98.3848 -135.441L-104.897 -133.775L-104.862 -126.368L-100.813 -121.896L-92.8672 -124.723L-91.6089 -133.181L-80.8652 -139.647L-62.9164 -151.649L-59.0387 -150.948L-64.1087 -142.437L-57.7289 -140.997L-54.0438 -145.737L-44.4044 -146.124L-36.7663 -151.981L-30.9056 -143.505L-25.0615 -152.836L-30.4507 -161.232L-27.7763 -166.116L-12.5845 -161.635L-5.46539 -157.071L13.173 -140.931L16.6124 -148.223L11.3846 -155.763L11.2343 -158.84L5.03606 -160.274L6.73277 -167.294L3.98129 -179.201L3.82545 -184.221L13.318 -198.877L16.6931 -214.32L20.5177 -217.765L34.1339 -213.154L35.207 -203.647L30.3313 -190.287L33.5304 -185.19L35.1849 -174.297L34.0165 -153.986L39.6901 -145.31L37.4834 -136.123L27.4093 -117.417L33.2882 -115.539L35.3336 -120.15L40.9924 -123.479L42.3572 -129.997L46.8091 -136.397L43.8117 -144.211L46.2129 -153.535L40.5889 -154.716L39.3525 -162.82L43.4559 -178.005L36.7753 -190.905L45.9799 -201.988L44.7913 -214.13L47.3557 -214.526L50.0576 -205.008L48.0308 -189.11L53.5337 -186.189L51.1894 -197.879L59.7961 -204.444L70.47 -205.34L79.9736 -195.838L75.4006 -209.819L74.8888 -228.68L83.8329 -232.387L96.2036 -231.572L107.347 -233.995L103.169 -243.866L109.121 -256.735L115.029 -257.286L125.03 -267.398L138.609 -270.176L140.326 -275.959L153.831 -277.944L158.039 -273.164L169.582 -284.604L179.031 -284.239L180.447 -293.847L185.363 -303.632L197.504 -313.376L206.325 -305.657L199.322 -299.914L210.973 -296.397L212.362 -285.329L217.062 -290.727L232.097 -290.428L243.69 -279.71L247.82 -271.729L246.539 -260.991L240.849 -255.044L227.334 -244.191L223.471 -238.543L229.849 -235.914L237.457 -231.233L242.085 -234.736L244.71 -223.01L246.968 -227.704L255.192 -230.593L271.693 -227.573L272.948 -219.18L294.45 -216.557L294.743 -230.264L305.658 -227.069L313.87 -227.168L322.174 -217.743L324.542 -206.668L321.499 -199.631L327.957 -186.824L336.047 -180.417L341.009 -197.252L349.259 -189.922L358.024 -194.281L367.979 -189.298L371.766 -193.838L380.18 -191.56L376.468 -206.965L383.258 -214.425L429.709 -203.307L434.087 -193.484L447.551 -181.281L468.32 -184.258L478.559 -181.664L482.84 -175.248L482.215 -164.212L488.55 -160.019L495.435 -163.029L504.557 -163.416L514.266 -160.527L524.013 -162.154L532.972 -149.325L539.346 -153.88L535.186 -163.187L537.477 -169.823L553.885 -165.63L564.583 -166.522L579.375 -159.472L586.575 -153.162L599.175 -142.417L612.661 -128.951L612.219 -120.812L615.687 -117.611L614.495 -127.051L628.456 -125.092L638.524 -113.068ZM404.786 52.9328L399.611 38.8378L397.489 30.5669L397.621 22.3198L395.84 14.0598L394.503 8.28174L392.214 9.51624L394.255 13.5609L389.501 17.5341L389.046 29.0829L392.06 37.1741L391.834 47.9086L390.643 53.8463L391.23 62.1686L390.656 69.5334L391.61 75.7701L394.982 70.0213L398.88 74.5062L399.023 69.3041L394.011 61.5467L397.175 50.3445L404.786 52.9328ZM-224.421 2.51645L-229.807 0.946289L-236.904 3.85004L-238.076 7.75162L-231.742 8.75134L-222.284 8.61923L-222.697 6.3667L-222.148 3.93256L-224.421 2.51645ZM586.575 -181.132L593.292 -182.086L598.591 -185.874L599.031 -188.053L591.592 -192.666L587.233 -192.701L586.575 -192.021L580.019 -185.335L580.936 -180.334L586.575 -181.132ZM385.023 -230.822L380.144 -223.641L381.044 -222.69L391.584 -220.702L399.382 -220.827L398.76 -225.539L391.454 -232.528L385.023 -230.822ZM430.1 -248.299L436.045 -256.092L423.138 -261.365L413.55 -264.449L412.32 -257.873L421.878 -250.046L430.1 -248.299ZM384.007 -251.407L402.965 -250.864L407.009 -265.804L388.418 -276.941L374.837 -277.88L368.052 -273.881L365.288 -259.661L375.477 -246.797L384.007 -251.407ZM-69.2888 -203.812L-74.5478 -200.22L-73.7958 -191.357L-64.4866 -187.05L-63.1218 -180.046L-46.3176 -178.025L-43.28 -179.388L-53.1174 -192.422L-54.163 -206.209L-46.1012 -222.98L-38.4355 -240.991L-22.4586 -259.643L-6.75134 -269.434L11.4726 -279.963L14.9286 -286.761L11.3534 -295.616L1.34357 -292.673L-7.46486 -284.434L-24.5827 -280.358L-41.563 -266.767L-53.0661 -256.038L-51.6739 -247.105L-63.9877 -230.543L-59.2588 -228.305L-69.4612 -213.134L-69.2888 -203.812ZM201.226 -328.446L202.754 -338.939L189.717 -354.242L185.854 -356.049L181.628 -352.938L172.233 -318.813L201.226 -328.446ZM-100.023 -382.216L-94.452 -375.106L-88.441 -380.046L-87.7238 -385.033L-83.0994 -387.367L-76.195 -391.466L-74.2048 -396.28L-81.8337 -403.336L-86.6818 -398.011L-89.6351 -390.445L-90.6862 -398.972L-98.5004 -398.585L-108.542 -392.804L-97.0953 -391.848L-100.023 -382.216ZM140.73 -358.285L149.265 -347.775L163.591 -340.067L174.813 -343.374L176.081 -368.363L164.239 -397.786L154.245 -414.337L143.12 -406.799L129.766 -385.092L136.783 -379.094L140.73 -358.285Z" fill="#14333D" stroke="white" stroke-opacity="0.1" stroke-width="0.517361"/>
<path d="M188.416 278.427L183.799 276.026L179.4 276.124L180.154 272.002L175.623 272.033L175.216 277.798L172.441 285.418L170.77 290.008L171.122 293.757L174.472 293.92L176.559 298.638L177.484 303.103L180.352 306.052L183.469 306.65L186.134 309.319L184.454 311.429L181.057 312.043L180.653 309.406L176.456 307.153L175.563 308.07L173.531 306.096L172.65 303.547L169.919 300.637L167.426 298.189L166.58 301.221L165.606 298.356L166.168 295.131L167.683 290.163L170.174 284.824L172.999 279.963L170.988 275.192L171.069 272.756L170.48 269.821L167.05 265.631L165.823 262.979L167.598 262.001L169.48 257.382L167.375 253.866L164.111 249.959L161.624 245.241L163.796 244.261L166.14 238.41L169.772 238.166L172.771 235.807L175.719 234.547L177.944 236.229L178.239 239.494L181.713 239.743L180.45 245.437L180.571 250.254L185.991 247.051L187.532 248L190.544 247.844L191.58 245.973L195.469 246.342L199.382 250.704L199.703 255.977L203.867 260.613L203.637 265.094L201.963 267.473L197.142 266.715L190.493 267.724L187.198 272.099L188.416 278.427Z" fill="#14333D" stroke="white" stroke-opacity="0.1" stroke-width="0.517361"/>
<path d="M26.0451 115.984L24.1631 118.049L18.5647 116.93L18.0767 120.775L23.6549 120.259L30.0072 122.413L39.7327 121.41L41.0369 127.505L42.7264 126.846L45.8502 128.336L45.6704 130.869L46.4427 134.56L41.1378 134.549L37.5958 134.074L34.3912 136.955L32.1093 137.592L30.3153 138.936L28.2811 136.84L28.7598 131.418L27.2043 131.108L27.7637 129.119L24.9792 127.633L22.7653 129.904L22.2205 132.524L21.4298 133.474L18.3556 133.338L16.6974 136.29L14.962 135.048L11.2402 137.113L9.66818 136.33L12.559 129.783L11.4475 124.908L7.67432 123.336L9.00785 120.417L13.302 120.729L15.7453 117.044L17.3815 112.728L24.2584 111.154L23.1871 114.289L23.9227 116.158L26.0451 115.984Z" fill="#14333D" stroke="white" stroke-opacity="0.1" stroke-width="0.517361"/>
<path d="M-24.3749 145.84L-24.8262 140.51L-28.6598 140.28L-34.5371 134.603L-38.6441 133.899L-44.3323 130.613L-47.99 130.014L-50.248 131.226L-53.6874 131.037L-57.3449 134.737L-61.8648 135.982L-62.8205 131.413L-62.0738 124.575L-66.0837 122.339L-64.7649 117.784L-68.1785 117.395L-67.0412 111.72L-62.1895 113.38L-57.6715 111.214L-61.4172 107.125L-62.892 103.19L-67.032 104.949L-67.5566 109.963L-69.1636 105.533L-66.8908 103.24L-61.0522 101.8L-57.5761 103.737L-53.9771 109.115L-51.3376 108.781L-45.5356 108.688L-46.3794 105.239L-41.9862 102.864L-37.6535 98.8264L-30.7234 102.499L-30.1732 107.987L-28.2049 109.383L-22.6451 109.069L-20.9191 110.306L-18.3895 117.26L-12.5087 121.858L-9.15372 124.967L-3.77547 128.179L3.06651 130.967L2.92532 134.928L1.37527 134.728L-1.05154 133.002L-1.85864 135.298L-6.1931 136.542L-7.22031 141.65L-10.1186 143.58L-14.1779 144.532L-15.251 147.388L-19.1306 148.225L-24.3749 145.84Z" fill="#14333D" stroke="white" stroke-opacity="0.1" stroke-width="0.517361"/>
<path d="M287.13 212.546L284.033 221.496L281.828 226.032L279.117 221.362L278.532 217.237L281.559 211.738L285.675 207.467L288.023 209.151L287.13 212.546Z" fill="#14333D" stroke="white" stroke-opacity="0.1" stroke-width="0.517361"/>
<path d="M2.92363 134.929L3.06481 130.968L-3.77717 128.18L-9.15541 124.968L-12.5103 121.859L-18.3912 117.261L-20.9208 110.307L-22.6468 109.07L-28.2066 109.384L-30.1749 107.988L-30.7251 102.5L-37.6552 98.8275L-41.9879 102.865L-46.3811 105.24L-45.5373 108.689L-51.3393 108.782L-51.543 82.8689L-38.3028 78.5637L-37.3416 79.1984L-29.3697 84.4024L-25.1617 87.1245L-20.2493 93.541L-14.2182 92.5119L-5.39687 91.9579L0.759033 97.1069L0.37569 104.079L2.88142 104.127L3.92879 109.738L10.4682 109.958L11.8787 113.17L13.7938 113.126L16.0444 108.267L22.8278 103.481L25.7774 102.203L27.3054 102.883L22.9874 107.339L26.7845 109.909L30.4476 108.208L36.5431 111.792L29.956 116.644L26.0434 115.984L23.921 116.158L23.1855 114.289L24.2568 111.154L17.3799 112.728L15.7436 117.044L13.3004 120.729L9.0062 120.417L7.67267 123.336L11.4459 124.908L12.5574 129.783L9.66653 136.33L5.78696 134.971L2.92363 134.929Z" fill="#14333D" stroke="white" stroke-opacity="0.1" stroke-width="0.517361"/>
<path d="M216.527 228.334L209.659 233.024L205.374 238.171L204.244 241.933L208.177 247.616L212.987 254.614L217.653 257.905L220.779 262.168L223.136 271.932L222.441 281.142L218.152 284.574L212.262 287.921L208.067 292.247L201.654 297.064L199.785 293.747L201.23 290.238L197.415 287.289L201.867 285.194L207.265 284.816L205.007 281.659L213.652 277.64L214.285 271.356L213.093 267.845L214.028 262.562L212.733 258.814L208.843 255.111L205.6 250.4L201.326 244.044L195.162 240.812L196.639 238.863L199.926 237.439L197.932 232.685L191.6 232.642L189.291 227.659L186.286 223.3L189.047 221.95L193.148 221.978L198.147 221.337L202.531 218.375L205.011 220.462L209.712 221.475L208.9 224.665L211.349 226.906L216.527 228.334Z" fill="#14333D" stroke="white" stroke-opacity="0.1" stroke-width="0.517361"/>
</g>
<rect x="214" y="166" width="56.6761" height="17.8977" rx="2.98295" fill="white"/>
<path d="M225.428 178.853C226.468 177.938 228.318 176.068 228.318 174.352C228.318 173.403 227.941 172.493 227.27 171.821C226.599 171.15 225.688 170.773 224.739 170.773C223.789 170.773 222.879 171.15 222.208 171.821C221.536 172.493 221.159 173.403 221.159 174.352C221.159 176.068 223.009 177.938 224.049 178.853C224.239 179.023 224.484 179.116 224.739 179.116C224.993 179.116 225.239 179.023 225.428 178.853ZM223.546 174.352C223.546 174.036 223.671 173.733 223.895 173.509C224.119 173.285 224.422 173.159 224.739 173.159C225.055 173.159 225.359 173.285 225.582 173.509C225.806 173.733 225.932 174.036 225.932 174.352C225.932 174.669 225.806 174.972 225.582 175.196C225.359 175.42 225.055 175.546 224.739 175.546C224.422 175.546 224.119 175.42 223.895 175.196C223.671 174.972 223.546 174.669 223.546 174.352Z" fill="#14333D"/>
<path d="M234.125 172.594H235.086C235.537 172.594 235.937 172.695 236.287 172.896C236.637 173.098 236.912 173.379 237.112 173.739C237.311 174.099 237.411 174.516 237.411 174.99C237.411 175.465 237.311 175.883 237.112 176.245C236.912 176.607 236.637 176.89 236.287 177.093C235.937 177.297 235.537 177.399 235.086 177.399H234.125C233.674 177.399 233.274 177.298 232.924 177.096C232.574 176.895 232.299 176.614 232.099 176.254C231.899 175.894 231.8 175.477 231.8 175.002C231.8 174.528 231.899 174.11 232.099 173.748C232.299 173.386 232.574 173.103 232.924 172.899C233.274 172.696 233.674 172.594 234.125 172.594ZM234.125 173.246C233.781 173.246 233.49 173.319 233.253 173.463C233.018 173.607 232.839 173.811 232.716 174.074C232.595 174.337 232.535 174.646 232.535 175.002C232.535 175.354 232.595 175.661 232.716 175.922C232.839 176.183 233.018 176.385 233.253 176.53C233.49 176.674 233.781 176.746 234.125 176.746H235.086C235.43 176.746 235.72 176.674 235.955 176.53C236.192 176.385 236.371 176.182 236.492 175.919C236.614 175.656 236.676 175.346 236.676 174.99C236.676 174.638 236.614 174.332 236.492 174.071C236.371 173.81 236.192 173.607 235.955 173.463C235.72 173.319 235.43 173.246 235.086 173.246H234.125ZM234.979 171.763V178.194H234.244V171.763H234.979ZM240.399 178.039C239.988 178.039 239.627 177.942 239.317 177.746C239.008 177.55 238.767 177.276 238.593 176.924C238.421 176.572 238.335 176.161 238.335 175.69C238.335 175.216 238.421 174.802 238.593 174.448C238.767 174.094 239.008 173.819 239.317 173.623C239.627 173.427 239.988 173.329 240.399 173.329C240.811 173.329 241.171 173.427 241.479 173.623C241.79 173.819 242.031 174.094 242.203 174.448C242.377 174.802 242.464 175.216 242.464 175.69C242.464 176.161 242.377 176.572 242.203 176.924C242.031 177.276 241.79 177.55 241.479 177.746C241.171 177.942 240.811 178.039 240.399 178.039ZM240.399 177.411C240.712 177.411 240.969 177.331 241.171 177.17C241.372 177.01 241.522 176.8 241.619 176.539C241.715 176.278 241.764 175.995 241.764 175.69C241.764 175.386 241.715 175.102 241.619 174.839C241.522 174.576 241.372 174.364 241.171 174.201C240.969 174.039 240.712 173.958 240.399 173.958C240.087 173.958 239.83 174.039 239.628 174.201C239.427 174.364 239.277 174.576 239.18 174.839C239.084 175.102 239.035 175.386 239.035 175.69C239.035 175.995 239.084 176.278 239.18 176.539C239.277 176.8 239.427 177.01 239.628 177.17C239.83 177.331 240.087 177.411 240.399 177.411ZM243.532 173.389H244.232V177.292H245.953V173.389H246.653V177.292H248.373V173.389H249.073V177.945H243.532V173.389ZM251.692 178.051C251.403 178.051 251.141 177.997 250.906 177.888C250.671 177.777 250.484 177.618 250.345 177.411C250.207 177.201 250.138 176.948 250.138 176.651C250.138 176.39 250.189 176.179 250.292 176.017C250.395 175.853 250.532 175.724 250.704 175.631C250.876 175.538 251.066 175.469 251.274 175.423C251.483 175.376 251.694 175.338 251.905 175.311C252.182 175.275 252.407 175.248 252.579 175.231C252.753 175.211 252.879 175.178 252.958 175.133C253.039 175.087 253.08 175.008 253.08 174.896V174.872C253.08 174.579 253 174.352 252.84 174.19C252.681 174.027 252.441 173.946 252.119 173.946C251.785 173.946 251.523 174.02 251.333 174.166C251.143 174.312 251.01 174.468 250.933 174.635L250.268 174.397C250.387 174.12 250.545 173.905 250.743 173.751C250.942 173.594 251.16 173.486 251.395 173.424C251.632 173.361 251.866 173.329 252.095 173.329C252.242 173.329 252.41 173.347 252.599 173.383C252.791 173.416 252.976 173.487 253.154 173.593C253.334 173.7 253.483 173.861 253.602 174.077C253.721 174.292 253.78 174.581 253.78 174.943V177.945H253.08V177.328H253.044C252.997 177.427 252.918 177.532 252.807 177.645C252.696 177.758 252.549 177.854 252.365 177.933C252.181 178.012 251.957 178.051 251.692 178.051ZM251.799 177.423C252.075 177.423 252.309 177.368 252.499 177.259C252.69 177.151 252.835 177.01 252.932 176.838C253.03 176.666 253.08 176.485 253.08 176.295V175.655C253.05 175.69 252.985 175.723 252.884 175.753C252.785 175.78 252.671 175.805 252.54 175.827C252.412 175.847 252.286 175.864 252.163 175.88C252.043 175.894 251.945 175.906 251.87 175.916C251.688 175.94 251.518 175.978 251.36 176.032C251.203 176.083 251.077 176.161 250.98 176.266C250.885 176.369 250.838 176.509 250.838 176.687C250.838 176.93 250.928 177.114 251.108 177.239C251.289 177.361 251.52 177.423 251.799 177.423ZM258.107 175.346V175.999H255.591V175.346H258.107ZM255.757 173.389V177.945H255.057V173.389H255.757ZM258.64 173.389V177.945H257.94V173.389H258.64ZM260.524 175.038H261.829C262.363 175.038 262.771 175.173 263.054 175.444C263.337 175.715 263.478 176.058 263.478 176.473C263.478 176.746 263.415 176.994 263.288 177.218C263.162 177.439 262.976 177.616 262.731 177.749C262.485 177.879 262.185 177.945 261.829 177.945H259.919V173.389H260.619V177.292H261.829C262.106 177.292 262.333 177.219 262.511 177.073C262.689 176.926 262.778 176.738 262.778 176.509C262.778 176.268 262.689 176.071 262.511 175.919C262.333 175.767 262.106 175.69 261.829 175.69H260.524V175.038Z" fill="#14333D"/>
<rect x="253.375" y="189.267" width="65.625" height="17.8977" rx="2.98295" fill="white"/>
<path d="M265.996 202.12C267.036 201.205 268.886 199.335 268.886 197.619C268.886 196.67 268.509 195.76 267.838 195.088C267.166 194.417 266.256 194.04 265.307 194.04C264.357 194.04 263.447 194.417 262.775 195.088C262.104 195.76 261.727 196.67 261.727 197.619C261.727 199.335 263.576 201.205 264.617 202.12C264.807 202.289 265.052 202.383 265.307 202.383C265.561 202.383 265.806 202.289 265.996 202.12ZM264.113 197.619C264.113 197.303 264.239 196.999 264.463 196.776C264.687 196.552 264.99 196.426 265.307 196.426C265.623 196.426 265.927 196.552 266.15 196.776C266.374 196.999 266.5 197.303 266.5 197.619C266.5 197.936 266.374 198.239 266.15 198.463C265.927 198.687 265.623 198.813 265.307 198.813C264.99 198.813 264.687 198.687 264.463 198.463C264.239 198.239 264.113 197.936 264.113 197.619Z" fill="#14333D"/>
<path d="M276.271 195.137V195.79H273.34V201.211H272.605V195.137H276.271ZM277.243 202.92C277.124 202.92 277.018 202.91 276.925 202.89C276.833 202.872 276.768 202.855 276.733 202.837L276.911 202.22C277.081 202.263 277.231 202.279 277.361 202.267C277.492 202.255 277.608 202.197 277.708 202.092C277.811 201.99 277.905 201.822 277.99 201.591L278.121 201.235L276.436 196.656H277.195L278.453 200.286H278.5L279.758 196.656H280.517L278.583 201.876C278.496 202.111 278.389 202.306 278.26 202.46C278.132 202.616 277.982 202.732 277.812 202.807C277.644 202.882 277.454 202.92 277.243 202.92ZM282.643 201.318C282.354 201.318 282.092 201.264 281.857 201.155C281.622 201.044 281.435 200.885 281.297 200.678C281.158 200.468 281.089 200.215 281.089 199.918C281.089 199.657 281.14 199.446 281.243 199.284C281.346 199.119 281.483 198.991 281.655 198.898C281.828 198.805 282.017 198.736 282.225 198.69C282.435 198.643 282.645 198.605 282.857 198.578C283.134 198.542 283.358 198.515 283.53 198.498C283.704 198.478 283.831 198.445 283.91 198.4C283.991 198.354 284.031 198.275 284.031 198.162V198.139C284.031 197.846 283.951 197.619 283.791 197.456C283.633 197.294 283.393 197.213 283.07 197.213C282.736 197.213 282.474 197.286 282.284 197.433C282.094 197.579 281.961 197.735 281.884 197.901L281.219 197.664C281.338 197.387 281.496 197.172 281.694 197.017C281.894 196.861 282.111 196.753 282.347 196.691C282.584 196.628 282.817 196.596 283.047 196.596C283.193 196.596 283.361 196.614 283.551 196.65C283.743 196.683 283.927 196.754 284.105 196.86C284.285 196.967 284.435 197.128 284.553 197.344C284.672 197.559 284.731 197.848 284.731 198.21V201.211H284.031V200.594H283.996C283.948 200.693 283.869 200.799 283.758 200.912C283.648 201.025 283.5 201.12 283.316 201.2C283.133 201.279 282.908 201.318 282.643 201.318ZM282.75 200.689C283.027 200.689 283.26 200.635 283.45 200.526C283.642 200.418 283.786 200.277 283.883 200.105C283.982 199.933 284.031 199.752 284.031 199.562V198.922C284.002 198.957 283.936 198.99 283.835 199.02C283.737 199.047 283.622 199.072 283.491 199.094C283.363 199.113 283.237 199.131 283.115 199.147C282.994 199.161 282.896 199.173 282.821 199.183C282.639 199.206 282.469 199.245 282.311 199.298C282.155 199.35 282.028 199.428 281.931 199.533C281.836 199.635 281.789 199.776 281.789 199.954C281.789 200.197 281.879 200.381 282.059 200.506C282.241 200.628 282.471 200.689 282.75 200.689ZM289.058 198.613V199.266H286.543V198.613H289.058ZM286.709 196.656V201.211H286.009V196.656H286.709ZM289.592 196.656V201.211H288.892V196.656H289.592ZM294.382 196.656V201.211H293.682V196.656H294.382ZM294.109 198.827V199.479C293.951 199.539 293.794 199.591 293.637 199.636C293.481 199.68 293.317 199.715 293.145 199.74C292.973 199.764 292.784 199.776 292.579 199.776C292.062 199.776 291.648 199.636 291.336 199.358C291.025 199.079 290.87 198.661 290.87 198.103V196.644H291.57V198.103C291.57 198.336 291.615 198.528 291.704 198.678C291.793 198.829 291.913 198.94 292.065 199.014C292.218 199.087 292.389 199.123 292.579 199.123C292.875 199.123 293.143 199.097 293.382 199.043C293.624 198.988 293.866 198.916 294.109 198.827ZM295.381 201.211L297.232 198.898L295.405 196.656H296.236L297.754 198.601H298.134V196.656H298.834V198.601H299.202L300.72 196.656H301.551L299.736 198.898L301.574 201.211H300.732L299.19 199.254H298.834V201.211H298.134V199.254H297.778L296.224 201.211H295.381ZM304.238 201.306C303.827 201.306 303.466 201.208 303.155 201.013C302.847 200.817 302.606 200.543 302.432 200.191C302.26 199.839 302.174 199.428 302.174 198.957C302.174 198.483 302.26 198.068 302.432 197.715C302.606 197.361 302.847 197.086 303.155 196.89C303.466 196.694 303.827 196.596 304.238 196.596C304.649 196.596 305.009 196.694 305.318 196.89C305.628 197.086 305.869 197.361 306.041 197.715C306.215 198.068 306.302 198.483 306.302 198.957C306.302 199.428 306.215 199.839 306.041 200.191C305.869 200.543 305.628 200.817 305.318 201.013C305.009 201.208 304.649 201.306 304.238 201.306ZM304.238 200.678C304.55 200.678 304.807 200.597 305.009 200.437C305.211 200.277 305.36 200.067 305.457 199.806C305.554 199.545 305.602 199.262 305.602 198.957C305.602 198.653 305.554 198.369 305.457 198.106C305.36 197.843 305.211 197.63 305.009 197.468C304.807 197.306 304.55 197.225 304.238 197.225C303.925 197.225 303.668 197.306 303.467 197.468C303.265 197.63 303.116 197.843 303.019 198.106C302.922 198.369 302.874 198.653 302.874 198.957C302.874 199.262 302.922 199.545 303.019 199.806C303.116 200.067 303.265 200.277 303.467 200.437C303.668 200.597 303.925 200.678 304.238 200.678ZM307.658 202.92C307.54 202.92 307.434 202.91 307.341 202.89C307.248 202.872 307.184 202.855 307.148 202.837L307.326 202.22C307.496 202.263 307.647 202.279 307.777 202.267C307.908 202.255 308.023 202.197 308.124 202.092C308.227 201.99 308.321 201.822 308.406 201.591L308.536 201.235L306.852 196.656H307.611L308.869 200.286H308.916L310.174 196.656H310.933L308.999 201.876C308.912 202.111 308.804 202.306 308.676 202.46C308.547 202.616 308.398 202.732 308.228 202.807C308.06 202.882 307.87 202.92 307.658 202.92Z" fill="#14333D"/>
</svg>
