<svg width="20" height="20" viewBox="0 0 20 20" fill="none" xmlns="http://www.w3.org/2000/svg">
<path d="M10.6342 0C11.7189 0.00289279 12.2695 0.00867836 12.7449 0.022178L12.9319 0.0289278C13.1479 0.0366419 13.361 0.0462845 13.6185 0.0578557C14.6444 0.106069 15.3445 0.268065 15.9587 0.506238C16.5951 0.751161 17.1312 1.08287 17.6673 1.61803C18.1578 2.09991 18.5372 2.68303 18.7791 3.32671C19.0172 3.94094 19.1792 4.641 19.2274 5.66793C19.239 5.92443 19.2486 6.13753 19.2564 6.35449L19.2621 6.54156C19.2766 7.01597 19.2824 7.56657 19.2843 8.65136L19.2853 9.3707V10.6339C19.2876 11.3372 19.2802 12.0406 19.2631 12.7437L19.2573 12.9308C19.2496 13.1477 19.24 13.3608 19.2284 13.6173C19.1802 14.6443 19.0163 15.3433 18.7791 15.9585C18.5372 16.6022 18.1578 17.1853 17.6673 17.6672C17.1854 18.1577 16.6023 18.5372 15.9587 18.779C15.3445 19.0172 14.6444 19.1792 13.6185 19.2274L12.9319 19.2563L12.7449 19.2621C12.2695 19.2756 11.7189 19.2824 10.6342 19.2843L9.91483 19.2852H8.65265C7.94901 19.2877 7.24537 19.2803 6.54193 19.2631L6.35487 19.2573C6.12597 19.2486 5.89712 19.2387 5.66833 19.2274C4.64239 19.1792 3.94235 19.0172 3.32717 18.779C2.68386 18.537 2.10108 18.1576 1.6195 17.6672C1.12865 17.1854 0.748901 16.6023 0.506773 15.9585C0.268606 15.3443 0.106614 14.6443 0.0584026 13.6173L0.0294755 12.9308L0.0246545 12.7437C0.00687977 12.0406 -0.0011564 11.3372 0.000548455 10.6339V8.65136C-0.00212045 7.94803 0.00495137 7.24469 0.0217617 6.54156L0.0285114 6.35449C0.0362253 6.13753 0.0458676 5.92443 0.0574385 5.66793C0.10565 4.641 0.267642 3.9419 0.505809 3.32671C0.748502 2.68277 1.12892 2.09962 1.62047 1.61803C2.10177 1.12775 2.6842 0.748339 3.32717 0.506238C3.94235 0.268065 4.64142 0.106069 5.66833 0.0578557C5.92482 0.0462845 6.13888 0.0366419 6.35487 0.0289278L6.54193 0.0231422C7.24505 0.00600997 7.94836 -0.00138342 8.65168 0.000964193L10.6342 0ZM9.64292 4.82131C8.36426 4.82131 7.13797 5.32927 6.23383 6.23344C5.32968 7.13761 4.82173 8.36393 4.82173 9.64262C4.82173 10.9213 5.32968 12.1476 6.23383 13.0518C7.13797 13.956 8.36426 14.4639 9.64292 14.4639C10.9216 14.4639 12.1479 13.956 13.052 13.0518C13.9562 12.1476 14.4641 10.9213 14.4641 9.64262C14.4641 8.36393 13.9562 7.13761 13.052 6.23344C12.1479 5.32927 10.9216 4.82131 9.64292 4.82131ZM9.64292 6.74984C10.0228 6.74977 10.399 6.82454 10.7499 6.96985C11.1009 7.11517 11.4199 7.3282 11.6885 7.59677C11.9572 7.86535 12.1703 8.18421 12.3157 8.53516C12.4612 8.8861 12.536 9.26226 12.5361 9.64214C12.5362 10.022 12.4614 10.3982 12.3161 10.7492C12.1708 11.1002 11.9578 11.4191 11.6892 11.6878C11.4206 11.9565 11.1018 12.1696 10.7508 12.315C10.3999 12.4605 10.0238 12.5353 9.64388 12.5354C8.87669 12.5354 8.14092 12.2306 7.59843 11.6881C7.05594 11.1456 6.75117 10.4098 6.75117 9.64262C6.75117 8.87541 7.05594 8.13962 7.59843 7.59711C8.14092 7.05461 8.87669 6.74984 9.64388 6.74984M14.7061 3.37492C14.3865 3.37492 14.0799 3.50191 13.8539 3.72795C13.6278 3.95399 13.5008 4.26057 13.5008 4.58025C13.5008 4.89992 13.6278 5.2065 13.8539 5.43254C14.0799 5.65859 14.3865 5.78557 14.7061 5.78557C15.0258 5.78557 15.3324 5.65859 15.5584 5.43254C15.7844 5.2065 15.9114 4.89992 15.9114 4.58025C15.9114 4.26057 15.7844 3.95399 15.5584 3.72795C15.3324 3.50191 15.0258 3.37492 14.7061 3.37492Z" fill="white"/>
</svg>
