<svg width="46" height="46" viewBox="0 0 46 46" fill="none" xmlns="http://www.w3.org/2000/svg">
<g clip-path="url(#clip0_108_902)">
<path d="M24.0946 2.30001C24.039 2.32876 23.9892 2.36326 23.9336 2.39201L25.6337 5.7711C25.703 5.91895 25.8217 6.03807 25.9693 6.10801C26.1168 6.17795 26.2842 6.19436 26.4425 6.15443C27.0845 5.97498 27.7688 6.02416 28.3785 6.29356C28.9882 6.56296 29.4853 7.03583 29.7849 7.63129C30.0844 8.22675 30.1677 8.90779 30.0206 9.55791C29.8735 10.208 29.505 10.7868 28.9783 11.1953C28.8506 11.2962 28.7618 11.4382 28.7269 11.5971C28.6919 11.7561 28.713 11.9222 28.7866 12.0673L30.1129 14.7008L32.7445 13.3764C32.8886 13.3011 33.0544 13.2779 33.2136 13.3107C33.3729 13.3436 33.5159 13.4304 33.6185 13.5566C34.0274 14.0816 34.6057 14.4484 35.2549 14.5947C35.904 14.7409 36.5838 14.6574 37.1783 14.3585C37.7728 14.0596 38.2451 13.5637 38.5149 12.9554C38.7846 12.3471 38.835 11.664 38.6574 11.0228C38.6174 10.8641 38.6337 10.6965 38.7037 10.5486C38.7736 10.4007 38.8928 10.2817 39.0408 10.212L41.5324 8.96235C41.3753 8.60585 41.2181 8.24935 41.0245 7.90435C40.2813 6.42434 39.2537 5.10529 38.0005 4.02257C36.7473 2.93985 35.293 2.11468 33.7208 1.59422C32.1486 1.07376 30.4892 0.868212 28.8375 0.989315C27.1858 1.11042 25.5741 1.5558 24.0946 2.30001Z" stroke="#3B9FBF" stroke-width="2" stroke-linecap="round" stroke-linejoin="round"/>
<path d="M23.6841 35.6806V35.65C23.7065 34.4341 24.0169 33.241 24.59 32.1684C25.1631 31.0959 25.9824 30.1746 26.9807 29.4802C28.6745 28.2447 30.0701 26.6455 31.0651 24.8001C32.0601 22.9547 32.6293 20.91 32.7307 18.8159H29.6104C29.4281 18.813 29.2505 18.8733 29.1076 18.9865C28.9647 19.0997 28.8654 19.2588 28.8265 19.4369C28.6816 20.1691 28.2871 20.8283 27.7104 21.3021C27.1336 21.7759 26.4104 22.0349 25.664 22.0349C24.9176 22.0349 24.1943 21.7759 23.6176 21.3021C23.0409 20.8283 22.6464 20.1691 22.5015 19.4369C22.4622 19.259 22.3628 19.1 22.22 18.9869C22.0772 18.8738 21.8997 18.8134 21.7176 18.8159H18.4113V22.1202C18.4137 22.3027 18.3531 22.4803 18.2396 22.6232C18.126 22.766 17.9667 22.8653 17.7884 22.9041C17.0562 23.049 16.397 23.4435 15.9232 24.0203C15.4494 24.597 15.1904 25.3203 15.1904 26.0666C15.1904 26.813 15.4494 27.5363 15.9232 28.113C16.397 28.6898 17.0562 29.0842 17.7884 29.2291C17.9667 29.2673 18.1262 29.3661 18.2398 29.5087C18.3534 29.6513 18.414 29.8289 18.4113 30.0111V35.6749L23.6841 35.6806Z" stroke="#3B9FBF" stroke-width="2" stroke-linecap="round" stroke-linejoin="round"/>
<path d="M18.4117 30.0169C18.4144 29.8346 18.3538 29.6571 18.2402 29.5145C18.1266 29.3719 17.9671 29.2731 17.7888 29.2349C17.0566 29.09 16.3974 28.6956 15.9236 28.1188C15.4498 27.5421 15.1908 26.8188 15.1908 26.0724C15.1908 25.326 15.4498 24.6028 15.9236 24.026C16.3974 23.4493 17.0566 23.0548 17.7888 22.9099C17.9671 22.8711 18.1265 22.7718 18.24 22.629C18.3535 22.4861 18.4141 22.3085 18.4117 22.126V18.8198H15.1055C14.9233 18.8221 14.7459 18.7614 14.6033 18.6478C14.4608 18.5343 14.3619 18.375 14.3235 18.1969C14.1786 17.4647 13.7841 16.8054 13.2074 16.3317C12.6306 15.8579 11.9074 15.5989 11.161 15.5989C10.4146 15.5989 9.69132 15.8579 9.11459 16.3317C8.53785 16.8054 8.14338 17.4647 7.99848 18.1969C7.95929 18.375 7.85995 18.5341 7.71717 18.6476C7.5744 18.761 7.39691 18.8218 7.21456 18.8198H4.50439C4.60609 20.9185 5.17738 22.9677 6.17617 24.8163C7.17496 26.665 8.5758 28.266 10.2755 29.5014C11.2776 30.1952 12.1003 31.1174 12.6758 32.1918C13.2514 33.2662 13.5632 34.462 13.5856 35.6807H18.4117V30.0169Z" stroke="#3B9FBF" stroke-width="2" stroke-linecap="round" stroke-linejoin="round"/>
<path d="M19.0327 8.40461C18.8548 8.36537 18.6958 8.26596 18.5827 8.12315C18.4696 7.98033 18.4092 7.80287 18.4117 7.6207V3.3772C14.6997 3.43006 11.1577 4.94144 8.551 7.58468C5.94435 10.2279 4.48248 13.7907 4.48134 17.503C4.46026 17.9477 4.48134 18.3828 4.50434 18.8198H7.21259C7.39494 18.8218 7.57243 18.761 7.71521 18.6476C7.85798 18.5341 7.95732 18.375 7.99651 18.1969C8.14141 17.4647 8.53588 16.8054 9.11262 16.3317C9.68935 15.8579 10.4126 15.5989 11.159 15.5989C11.9054 15.5989 12.6287 15.8579 13.2054 16.3317C13.7821 16.8054 14.1766 17.4647 14.3215 18.1969C14.36 18.375 14.4588 18.5343 14.6014 18.6478C14.7439 18.7614 14.9213 18.8221 15.1035 18.8198H18.4117V15.5135C18.4092 15.3314 18.4696 15.1539 18.5827 15.0111C18.6958 14.8683 18.8548 14.7689 19.0327 14.7296C19.7665 14.5867 20.4278 14.193 20.9032 13.6161C21.3787 13.0391 21.6387 12.3147 21.6387 11.5671C21.6387 10.8195 21.3787 10.0951 20.9032 9.51817C20.4278 8.9412 19.7665 8.54753 19.0327 8.40461Z" stroke="#3B9FBF" stroke-width="2" stroke-linecap="round" stroke-linejoin="round"/>
<path d="M13.52 42.2107H23.9026" stroke="#3B9FBF" stroke-width="2" stroke-linecap="round" stroke-linejoin="round"/>
<path d="M13.52 38.962H23.9026" stroke="#3B9FBF" stroke-width="2" stroke-linecap="round" stroke-linejoin="round"/>
<path d="M18.7104 42.2107V45.0416" stroke="#3B9FBF" stroke-width="2" stroke-linecap="round" stroke-linejoin="round"/>
</g>
<defs>
<clipPath id="clip0_108_902">
<rect width="46" height="46" fill="white"/>
</clipPath>
</defs>
</svg>
