<svg width="21" height="21" viewBox="0 0 21 21" fill="none" xmlns="http://www.w3.org/2000/svg">
<path d="M10.5003 0.857178C5.17742 0.857178 0.857422 5.17718 0.857422 10.5C0.857422 15.8229 5.17742 20.1429 10.5003 20.1429C15.8231 20.1429 20.1431 15.8229 20.1431 10.5C20.1431 5.17718 15.8231 0.857178 10.5003 0.857178ZM14.9746 7.41432C14.8299 8.93789 14.2031 12.6407 13.8849 14.3475C13.7499 15.0707 13.4799 15.3118 13.2292 15.3407C12.6699 15.389 12.2456 14.9743 11.7056 14.6175C10.8571 14.0582 10.3749 13.7111 9.55528 13.1711C8.60064 12.5443 9.21778 12.1972 9.76742 11.6379C9.91206 11.4932 12.3806 9.24646 12.4289 9.04396C12.4355 9.01329 12.4347 8.98145 12.4263 8.9512C12.4179 8.92095 12.4022 8.89322 12.3806 8.87039C12.3228 8.82218 12.2456 8.84146 12.1781 8.85111C12.0914 8.87039 10.7414 9.76718 8.10885 11.5415C7.72314 11.8018 7.37599 11.9368 7.06742 11.9272C6.72028 11.9175 6.06456 11.7343 5.57278 11.5704C4.96528 11.3775 4.49278 11.2715 4.53135 10.934C4.55064 10.7604 4.79171 10.5868 5.24492 10.4036C8.06064 9.17896 9.93135 8.36896 10.8667 7.98325C13.5474 6.86468 14.0971 6.67182 14.4635 6.67182C14.5406 6.67182 14.7239 6.69111 14.8396 6.78753C14.936 6.86468 14.9649 6.97075 14.9746 7.04789C14.9649 7.10575 14.9842 7.27932 14.9746 7.41432Z" fill="white"/>
</svg>
