<svg width="21" height="21" viewBox="0 0 21 21" fill="none" xmlns="http://www.w3.org/2000/svg">
<mask id="mask0_14_453" style="mask-type:luminance" maskUnits="userSpaceOnUse" x="0" y="0" width="21" height="21">
<path d="M0.855469 0.856934H20.1412V20.1426H0.855469V0.856934Z" fill="white"/>
</mask>
<g mask="url(#mask0_14_453)">
<path d="M12.3152 0.999076L11.7367 0.917873C9.99784 0.666811 8.22347 0.915189 6.62041 1.63405C5.01735 2.35291 3.65166 3.51263 2.68254 4.97802C1.65142 6.37875 1.03674 8.04216 0.909245 9.7768C0.78175 11.5114 1.14662 13.2468 1.96186 14.7833C2.04529 14.9373 2.09724 15.1063 2.11466 15.2806C2.13209 15.4549 2.11465 15.6309 2.06336 15.7983C1.6472 17.2295 1.26148 18.6709 0.855469 20.1833L1.36299 20.031C2.73329 19.6656 4.10359 19.3002 5.47389 18.9652C5.76312 18.9051 6.06375 18.9334 6.33667 19.0464C7.56608 19.6465 8.90961 19.9765 10.2771 20.0146C11.6446 20.0526 13.0044 19.7977 14.2652 19.2669C15.5261 18.7362 16.6588 17.9419 17.5875 16.9373C18.5161 15.9327 19.2191 14.7412 19.6492 13.4426C20.0794 12.144 20.2269 10.7683 20.0817 9.40806C19.9365 8.04777 19.502 6.73428 18.8074 5.55574C18.1128 4.37719 17.1741 3.36086 16.0543 2.57495C14.9346 1.78903 13.6597 1.25172 12.3152 0.999076ZM14.8731 14.3164C14.5042 14.6467 14.0544 14.8733 13.5694 14.9731C13.0844 15.073 12.5816 15.0425 12.1122 14.8848C9.98529 14.2859 8.14 12.9514 6.90509 11.119C6.43339 10.4709 6.05419 9.76035 5.7784 9.00772C5.62904 8.57103 5.60211 8.10177 5.70052 7.65085C5.79894 7.19994 6.01894 6.78458 6.33667 6.44983C6.49135 6.25242 6.7019 6.10617 6.94088 6.03013C7.17986 5.95409 7.43621 5.95178 7.67652 6.02351C7.87953 6.07426 8.02164 6.36862 8.20434 6.59193C8.35254 7.01114 8.52611 7.42122 8.72201 7.82013C8.87064 8.02365 8.93271 8.27771 8.89468 8.52683C8.85664 8.77596 8.72159 8.99992 8.519 9.14983C8.06224 9.55584 8.13329 9.8908 8.4581 10.3476C9.17619 11.3821 10.167 12.1972 11.3205 12.7025C11.6453 12.8446 11.8889 12.875 12.1021 12.5401C12.1934 12.4081 12.3152 12.2964 12.4167 12.1746C13.0055 11.4337 12.8228 11.4438 13.7566 11.8498C14.054 11.9747 14.3423 12.1208 14.6194 12.2863C14.8934 12.4487 15.3096 12.6213 15.3705 12.8649C15.4291 13.1291 15.4137 13.4045 15.3259 13.6606C15.2382 13.9166 15.0815 14.1436 14.8731 14.3164Z" fill="white"/>
</g>
</svg>
